<svg xmlns="http://www.w3.org/2000/svg" viewBox="5354.22 3433.705 173.14 171.408">
  <defs>
    <style>
      .cls-1 {
        fill: #ed8566;
        stroke: #ed8566;
      }

      .cls-2 {
        fill: #fce277;
      }
    </style>
  </defs>
  <g id="icon_clip" transform="translate(4210 3144)">
    <path id="icon_clip-2" data-name="icon_clip" class="cls-1" d="M103.734,74.845c.153-.153.153-.305.153-.611a.918.918,0,0,0,.153-.611c0-.153-.153-.458-.153-.611V71.639c0-.153-.153-.305-.305-.611l-.458-.458c-.153,0-.153-.153-.305-.153a.15.15,0,0,0-.153-.153c-.153-.153,0-.458-.153-.611l-.458-.458c-.153-.153-.458,0-.611,0,0-.153-.153-.153-.153-.305-.153-.153-.153-.305-.305-.458s-.305-.153-.611-.153a.793.793,0,0,0-.611-.305.918.918,0,0,0-.611.153c-.153,0-.153.153-.305.153h-.305c-.153,0-.305-.153-.611-.153-.153,0-.305.153-.611.153h0c-.153,0-.153-.153-.305-.153a2.108,2.108,0,0,0-.611-.458c-.153,0-.458.153-.611.153a.918.918,0,0,0-.611.153.328.328,0,0,0-.305.305c-.153,0-.305.153-.458.153h-.305c-.153-.153-.305-.305-.458-.305h-.611a.793.793,0,0,0-.611-.305H91.366v-.458a.918.918,0,0,0-.153-.611h0a.15.15,0,0,1,.153-.153v-.611c0-.153,0-.153-.153-.305.458,0,.458,0,.611-.153a.918.918,0,0,0,.153-.611c0-.153.153-.458.153-.611a1.158,1.158,0,0,0-.305-.611c0-.153-.153-.153-.153-.305V63.24c0-.153.153-.305.153-.458h0c.153-.153.458-.305.458-.458V61.1c.153-.153.153-.305.153-.611,0-.153.153-.458,0-.611v-.153l.153-.153c.153-.153.153-.305.153-.611,0-.153.153-.458.153-.611a1.158,1.158,0,0,0-.305-.611c0-.153-.153-.153-.153-.305v-.305c0-.153.153-.305.153-.458h0c.153-.153.153-.305.305-.458a.793.793,0,0,0,.305-.611c0-.153-.153-.458-.153-.611a.561.561,0,0,0-.153-.458v-.305c0-.153.153-.458,0-.611h0c.153-.153.305-.305.305-.458s.153-.458.153-.611v-.611h0c0-.153.153-.305.153-.611V50.108c0-.153.153-.305,0-.611a.918.918,0,0,0-.153-.611.15.15,0,0,0-.153-.153c0-.153.153-.305.153-.458s-.153-.305-.153-.458h0c.153-.153.305-.305.305-.458V45.985c.153-.153.153-.305.305-.458v-.916c0-.153,0-.153.153-.305s.153-.305.305-.611a1.154,1.154,0,0,0-.153-.611.918.918,0,0,0-.153-.611c-.153-.153-.153-.305-.305-.305,0-.153-.153-.305-.153-.458a.918.918,0,0,0-.153-.611h0v-.763c0-.153-.305-.305-.305-.458-.153-.153-.153-.305-.305-.458h-.153c0-.153.153-.305.153-.458a.793.793,0,0,0-.305-.611c-.153-.153-.153-.458-.305-.611s-.305-.153-.458-.305h0c0-.153-.153-.305-.305-.458s-.153-.305-.305-.458-.305-.153-.458-.305a.561.561,0,0,0-.458-.153h-.458a.15.15,0,0,0-.153-.153c-.153-.153-.305-.153-.458-.305s-.305-.153-.458-.305h-.305c-.153-.153-.153-.305-.305-.458s-.305-.153-.611-.153H87.09c0-.153-.153-.153-.153-.305-.153-.153-.305-.305-.458-.305a.793.793,0,0,0-.611-.305h-.611a.918.918,0,0,0-.611.153.15.15,0,0,0-.153.153c-.153,0-.153-.153-.305-.153H83.12c-.153,0-.153-.153-.305-.153H81.9c-.153,0-.305.153-.458.305h0c-.153,0-.153-.153-.305-.153s-.305-.153-.458-.153-.305.153-.458.153-.153-.153-.305-.153c-.153-.153-.458,0-.611,0H79c0-.153-.153-.153-.305-.305,0,.153-.305.153-.458.153s-.458-.153-.611-.153a.918.918,0,0,0-.611.153c-.153,0-.305.153-.458.153H76.1l-.153-.153H74.569c-.153,0-.305.153-.458.305h-.458c-.153,0-.458-.153-.611,0-.153,0-.153,0-.305.153-.153-.153-.305-.153-.611-.305-.153,0-.458-.153-.611-.153s-.458.153-.611.153-.305.153-.458.153c-.153-.305-.305-.305-.305-.305-.305,0-.458,0-.611.153a.328.328,0,0,0-.305.305h-.153c-.153-.153-.305-.153-.611-.153H67.85c-.153,0-.305,0-.305.153a.533.533,0,0,1-.305-.153h-.611a.918.918,0,0,0-.611.153c-.153,0-.153.153-.305.305h0c0-.153,0-.153-.153-.305a.561.561,0,0,0-.153-.458h.153l.153-.153h.153a17288.174,17288.174,0,0,0,.611-.611c.153-.153.153-.153.153-.305.153,0,.305,0,.305-.153.153-.153.153-.305.305-.305v-.153h.305c.153,0,.305-.305.305-.305.153-.153.305-.153.305-.305v-.305a.15.15,0,0,0,.153-.153.473.473,0,0,0,.153-.305h.153c.153,0,.305-.153.458-.153a.561.561,0,0,0,.153-.458l.153-.153a.15.15,0,0,0,.153-.153c.153-.153.153-.305.305-.305.153-.153.305-.153.305-.305s.153-.305.153-.458l.305-.305v-.916h0l.305-.305h0c.153,0,.153-.305.305-.305s.153-.153.305-.305c0-.153.153-.305.153-.458s.153-.305,0-.458v-.153l.153-.153c0-.153.153-.305.153-.458a.561.561,0,0,0-.153-.458l.153-.153c0-.153.153-.305.153-.458s.153-.305,0-.458c0-.153,0-.153-.153-.305.153,0,.153-.153.153-.305v-.763l.153-.153a.561.561,0,0,0,.153-.458c0-.153.153-.305.153-.458s-.153-.305-.153-.458v-.153a.15.15,0,0,1,.153-.153v-.916a.533.533,0,0,0-.153-.305c0-.153.153-.153.153-.305a.561.561,0,0,0-.153-.458.533.533,0,0,0,.153-.305v-.458c0-.153.153-.305,0-.458,0-.153-.153-.305-.153-.458s-.153-.153-.153-.305v-.305c0-.153,0-.305-.153-.305h0V15.14c0-.153.153-.305.153-.458s-.153-.305-.153-.458-.153-.305-.153-.458H71.82v-.305A.561.561,0,0,0,71.668,13a.15.15,0,0,0-.153-.153v-.763a.328.328,0,0,0-.305-.305l-.153-.153h0a.561.561,0,0,0-.153-.458c0-.153-.305-.153-.305-.305l-.153-.153v-.305a.328.328,0,0,0-.305-.305V9.643c0-.153-.153-.305-.305-.458s-.153-.305-.305-.458a.561.561,0,0,0-.458-.153h0c0-.153-.153-.153-.305-.305,0-.153-.153-.153-.305-.305,0-.153,0-.153-.153-.305a.561.561,0,0,0-.153-.458C68,7.047,68,6.895,67.85,6.895s-.153-.153-.305-.153V6.589l-.305-.305c-.153-.153-.305-.153-.305-.305h-.305a.15.15,0,0,0-.153-.153l-.153-.153V5.521c0-.153-.153-.305-.305-.458s-.153-.305-.305-.458c.305,0,.153,0,0,0a.533.533,0,0,1-.305-.153h0L65.1,4.146H64.8c0-.153,0-.153-.153-.153l-.305-.305c-.153,0-.153-.153-.305-.153h-.305l-.305-.305h-.305c0-.153-.153-.153-.305-.305s-.153-.458-.305-.458a.561.561,0,0,0-.458-.153c-.153,0-.305.153-.458.153h0c-.153-.153-.153-.153-.305-.153a.533.533,0,0,1-.305-.153h0c-.153-.153-.305-.153-.458-.305A2.108,2.108,0,0,0,59.91,1.4H58.23a.15.15,0,0,1-.153-.153l-.153-.153a.533.533,0,0,1-.153-.305C57.62.634,57.62.482,57.467.329a.561.561,0,0,0-.458-.153c-.153,0-.305-.153-.458-.153a.561.561,0,0,0-.458.153.15.15,0,0,0-.153.153h-.763c-.153,0-.305-.153-.458-.153s-.305.153-.458.153h-.153C53.955.176,53.955.023,53.8.023h-.458c-.153,0-.305-.153-.458,0-.153,0-.305.153-.458.305h-.153c-.153,0-.305-.153-.458-.153a.533.533,0,0,0-.305.153L51.359.176a.533.533,0,0,1-.305-.153H50.6a.15.15,0,0,0-.153.153C50.29.023,50.29.023,50.137.023h-.764c-.153,0-.153.153-.305.305h-.305a.533.533,0,0,0-.305.153c-.153,0-.305,0-.305.153h-.305c-.153,0-.305-.153-.458,0-.153,0-.305.153-.458.153a.15.15,0,0,0-.153.153h-.153A.533.533,0,0,1,46.32.787c-.153,0-.153.153-.305.153s-.153.153-.305.153H45.4s-.305,0-.305.153l-.153.153h-.611a.15.15,0,0,0-.153.153H42.961c-.153,0-.153,0-.305.153a.533.533,0,0,0-.305.153l-.153.153h-.305c-.153,0-.153.153-.305.153h-.763c-.153,0-.305.153-.458.153-.153.153-.305.153-.305.305a.15.15,0,0,1-.153.153.561.561,0,0,0-.458.153l-.153.153h-.305c-.153,0-.305.153-.458.305s-.305.153-.305.305a.15.15,0,0,1-.153.153h-.153c-.153,0-.153.153-.305.153s-.153.153-.305.153h-.458c-.153,0-.305.153-.458.153.153.305,0,.305,0,.458a.561.561,0,0,0-.153.458.15.15,0,0,1-.153.153l-.153.153a.561.561,0,0,0-.153.458v.153c-.153,0-.153.153-.305.153s-.305.153-.458.153-.153.153-.153.305c-.153,0-.305.153-.458.153s-.305.153-.458.305-.153.305-.305.458-.153.305-.305.458h0l-.153.153c-.153.153-.305.305-.305.458v.611h0l-.305.305c0,.153,0,.305-.153.305h0l-.305.305c.153.153,0,.305,0,.458v.763l-.153.153a.533.533,0,0,1-.153.305v.153a.328.328,0,0,0-.305.305c-.153.153-.153.305-.305.305v.611c-.153.153-.153.153-.153.305a.561.561,0,0,0-.153.458c0,.153-.153.305-.153.458s0,.153.153.305c0,.153-.153.153-.153.305v.916h0a.561.561,0,0,1-.153.458v.458a.533.533,0,0,0,.153.305h0c0,.153-.153.153-.153.305V18.5c0,.153.153.153.153.305s-.153.153-.153.305v.153l-.153.153a.561.561,0,0,0-.153.458c0,.153-.153.305-.153.458a.561.561,0,0,0,.153.458.561.561,0,0,0,.153.458l.153.153v.763a.561.561,0,0,0,.153.458h0v.611c0,.153.153.305.305.458s.153.305.305.458h.153c0,.153.153.305.153.458a.561.561,0,0,0,.153.458c.153.153.305.153.305.305h0c0,.153-.153.305-.153.458s.153.305.153.458a.561.561,0,0,0,.153.458c.153.153.153.305.305.458s.153.305.305.305h.153a.561.561,0,0,0,.153.458c.153.153.305.153.305.305.153,0,.153.153.305.153l.153.153c0,.153.305.153.305.153h0v.153a.533.533,0,0,0,.153.305.533.533,0,0,0,.153.305.15.15,0,0,1,.153.153V29.8c0,.153.153.305.153.458s.153.305.153.458a.561.561,0,0,0,.458.153c.153,0,.153.153.305.153,0,.153,0,.153.153.153l.305.305.153.153v.153l.305.305c.153.153.305,0,.305.153V32.4a.561.561,0,0,0,.153.458c.153.153.305.153.305.305.153.153.153.153.305.153h.305l.305.305h.305v.153h0a.561.561,0,0,0-.458-.153h-.611a.15.15,0,0,0-.153.153c-.153,0-.305-.153-.611-.153-.153,0-.305.153-.611.153s-.458,0-.611.153h-.458a.561.561,0,0,0-.458-.153c-.153,0-.305-.305-.611-.305s-.458.153-.611.153a1.158,1.158,0,0,0-.611.305h0c-.153,0-.305.153-.458.153h0c-.153-.153-.153-.305-.305-.305-.153-.153-.305-.153-.611-.153-.153,0-.458-.153-.611-.153a.918.918,0,0,0-.611.153c-.153.153-.458.153-.611.305h-.305l-.153-.153c-.153-.153-.305-.153-.611-.153-.153,0-.458-.153-.611-.153s-.305.305-.611.305c-.153,0-.153.153-.305.153s-.305-.153-.458-.153h-.153c-.153-.153-.305-.153-.458-.305s-.458,0-.611,0h-.763a.793.793,0,0,0-.611-.305h-.611c-.153,0-.153.153-.305.153-.153.305-.305.305-.458.305a.918.918,0,0,0-.611.153.918.918,0,0,0-.611.153c-.153,0-.153.153-.305.153h-.916c-.153-.153-.305,0-.611-.153-.153,0-.305-.153-.458,0a.561.561,0,0,0-.458.153c-.153,0-.305.153-.458.153h0c-.153,0-.305-.153-.458-.153s-.305.153-.611.153a.918.918,0,0,0-.611.153c-.153,0-.153.153-.305.153a.561.561,0,0,0-.458.153.918.918,0,0,0-.611.153c.153,0,0,.153-.153.305l-.153.153h-.458c-.153,0-.305.153-.458.153a.533.533,0,0,0-.305.153H13.49c-.153,0-.305.153-.458.305s-.458,0-.611.153-.305.305-.305.458c-.153.153,0,.458,0,.611v.305c-.153,0-.305,0-.305.153-.153.153-.153.305-.305.458s-.153.305-.305.458a.15.15,0,0,0-.153.153c-.153.153-.153.458-.305.611s-.305.305-.305.458a.918.918,0,0,0-.153.611v.611c-.153.153-.153.305-.305.458,0,.153-.153.305-.153.458v.153a.15.15,0,0,0-.153.153.57.57,0,0,0-.458.611c-.153.153-.153.305-.153.611,0,.153.153.305.153.611v.458l.153.153c0,.153-.153.153-.153.305a.918.918,0,0,0,.153.611c0,.153.305.305.305.458v.153c0,.153-.153.305-.153.611,0,.153.153.458.153.611a.15.15,0,0,0,.153.153.561.561,0,0,1-.153.458c0,.153-.153.458,0,.611,0,.153.153.305.153.458a.15.15,0,0,1-.153.153c0,.153-.153.458-.153.611s.153.305.153.611c0,.153.153.305.153.458a.15.15,0,0,0,.153.153c0,.153.153.305.153.458v.153l-.153.153c-.153.153,0,.458-.153.611,0,.153-.153.458,0,.611,0,.153.153.458.153.611s.153.305.153.458a.918.918,0,0,0,.153.611c0,.153.153.153.153.305v.153a.793.793,0,0,0-.305.611v.611a.918.918,0,0,0,.153.611h0c0,.305-.153.458-.153.611a1.158,1.158,0,0,0,.305.611c.153.153.305.305.458.305h0c0,.153.153.305.153.458v.153c0,.153-.153.153-.153.305v.611c0,.153-.153.458,0,.611v.305c0,.153-.153.458-.153.611,0,.305,0,.458.153.611,0,.153,0,.305.153.305v.916c0,.153.153.458.153.611.153.153.153.458.305.611h.153c0,.153-.153.305,0,.458,0,.153.153.305.153.458a.533.533,0,0,0,.153.305v.458c0,.153-.153.458,0,.611h0c-.153.153-.153.305-.153.611v.611h0c-.153,0-.458-.153-.611,0h0c-.153,0-.153-.153-.305-.153H8.756a.561.561,0,0,1-.458-.153c-.153-.153-.305-.153-.611-.305H7.077c-.305,0-.458,0-.611.153s-.305.305-.458.305-.305.153-.458.153a.561.561,0,0,0-.458.153c-.153.153-.305,0-.458.153v.153H4.176c-.153,0-.305.153-.458.305a.533.533,0,0,0-.305.153h0c-.153,0-.458-.153-.611,0-.153,0-.305.305-.458.305-.153.153-.305.153-.458.305-.305.305-.458.305-.611.611-.153.153-.153.305-.305.611h0a.15.15,0,0,0-.153.153c-.153.153-.153.458-.305.611s-.153.305-.305.611c0,.153-.305.458-.305.611a.793.793,0,0,0,.305.611,1.538,1.538,0,0,0-.153.458c0,.153.153.458.153.611v.611l.458.458h0a.918.918,0,0,0,.153.611.918.918,0,0,0,.153.611.793.793,0,0,0,.611.305.793.793,0,0,0,.611.305h.153c0,.153.305.305.305.458.153.153.153.305.305.305a.561.561,0,0,0,.458.153h.305c0,.153.153.305.153.458,0,.611.305.611.458.763s.458,0,.611,0H5.4c.153.153.305.153.611.153.153.153.305.153.611.153.153,0,.458.305.611.153.153,0,.305-.153.458-.305H9.062c.153,0,.153,0,.305.153.153,0,.458.153.611.153h.305a.918.918,0,0,0,.611.153h0c0,.153.305,0,.305,0h1.527c.458,0,.458.153.763.153.458,0,.611.305,1.069,0a2.043,2.043,0,0,0,.763-.153h.305c.153-.153.305.153.458,0s.458,0,.458-.153a.15.15,0,0,0,.153-.153h.458a1.158,1.158,0,0,0,.611.305c.153.153.458,0,.763,0h.611a1.66,1.66,0,0,0,.763-.153c.153,0,.153-.153.305-.305h0a.561.561,0,0,0,.458-.153h.153c.153.153.305.153.458.305H22.8c.153,0,.153.153.305.153s.305.153.611.153c.153,0,.305-.153.611-.305.153,0,.153-.153.305-.153s.305.153.458.153.458.153.611.153h0c.153.153.305.153.458.305h.611a.918.918,0,0,0,.611-.153.15.15,0,0,0,.153-.153h0c.153,0,.458.153.611.153s.305-.153.611-.153c.153,0,.153,0,.305-.153h0c.153.153.305.153.611.305H30.9c.153,0,.305.153.611.153.153,0,.305-.153.611-.153.153,0,.153,0,.305-.153h.153c.153,0,.305.153.458.153a.15.15,0,0,0,.153.153c.153.153.458.153.611.305.153,0,.458.153.611.153.305,0,.458,0,.611-.153.153,0,.305-.153.458-.153h.611c.153,0,.153,0,.305-.153h1.222c.153,0,.458-.153.611-.153s.153-.153.305-.153a.533.533,0,0,1,.305.153c.153,0,.305-.153.458-.153h.153a.561.561,0,0,1,.458.153c.153,0,.305.153.611.153.153,0,.305-.153.458-.153a.561.561,0,0,0,.458.153c.153,0,.458.305.611.305a1.158,1.158,0,0,0,.611-.305c.153,0,.153-.153.305-.153h.153c.153,0,.458-.153.611-.153h0c.153,0,.305.153.458.153s.458.305.611.305a.793.793,0,0,0,.611-.305c.153,0,.305-.153.458-.153s.305.153.458.153.305-.153.458-.153l.153.153c.153.153.458,0,.611,0s.458.153.611,0a.533.533,0,0,0,.305-.153h.611a.561.561,0,0,0,.458-.153h0l.458.458h.763c0,.153.153.153.305.305s.458,0,.763,0h.611c.153,0,.305-.305.611-.305h.153c.153,0,.305-.153.458-.153s.305,0,.305-.153a.15.15,0,0,0,.153.153c.153.153.458,0,.611,0h.916a.793.793,0,0,0,.611.305h1.069c.153,0,.305.153.458.153s.458.153.611.153a.793.793,0,0,0,.611-.305c.153,0,.305-.153.458-.153s.305.153.458.153.305-.153.611-.153h.305a.473.473,0,0,0,.305.153h.611c.153,0,.305-.305.458-.305.153.153.305.305.458.305h.611c.153,0,.153-.153.305-.153h0a.918.918,0,0,0,.611.153c.153,0,.305.153.611.153.153,0,.305,0,.305-.153l.153.153a.918.918,0,0,0,.611.153c.153,0,.458.153.611,0,.153,0,.305-.153.611-.305h.153c.153,0,.153.153.305.153h1.069a.918.918,0,0,0,.611.153c.153,0,.458.153.611,0,.153,0,.305-.153.458-.153h0c.153.153.458,0,.611,0h.611c.153,0,.305-.153.458-.153a.533.533,0,0,1,.305.153c.153,0,.458.153.611,0h.305c.153.153.305.153.611.153.153,0,.458.153.611.153s.305-.153.458-.305c.153,0,.153.153.305.153s.458-.153.611-.153.458-.153.611-.153l.153-.153c.153,0,.305.153.458.153s.305-.153.458-.153h.305a.793.793,0,0,0,.611.305h1.069a.561.561,0,0,1,.458.153c.153,0,.458.153.611.153h.305l.153.153c.153.153.458,0,.611.153H82.2c.153,0,.305-.305.611-.305.153-.153.305-.153.458-.305h.305c.153,0,.305-.153.458-.153H84.8l.305.305c.153.153.458,0,.611.153.305,0,.458.153.611.153s.305-.153.458-.153a.15.15,0,0,0,.153.153c0,.153.458.305.458.458a1.01,1.01,0,0,0,.916-.153c.153-.153.458,0,.763,0,1.069.305.305,0,1.527.153a3.7,3.7,0,0,0,1.374,0,1.14,1.14,0,0,0,.458-.458h.305a.918.918,0,0,0,.611-.153L93.5,80.8h0c.153,0,.458.153.611.153h.153a.15.15,0,0,1,.153.153c.153.153.305.153.611.153.153,0,.458.153.611,0a.328.328,0,0,0,.305-.305.473.473,0,0,0,.305.153h.916a.15.15,0,0,1,.153.153c.153,0,.458.153.611.153s.305-.153.611-.305c.153,0,.305-.153.458-.305l.458-.458.153-.153c.153,0,.305.153.458.153s.305-.153.458-.305.305-.153.458-.305h.305c.153,0,.305-.305.458-.305.153-.153.305-.153.458-.305s.305-.305.305-.458V78.51h0l.458-.458.458-.458a.918.918,0,0,0,.153-.611c.458-1.527.305-1.68.153-2.138ZM56.856,26.593c0,.153-.153.305-.153.458V27.2l-.153.153v.305H56.4c-.153.153-.305.153-.305.305-.153.153,0,.305-.153.458,0,.153-.153.153-.153.305-.153,0-.153,0-.305.153s-.153.305-.305.458v.611h0c-.153.305-.153.458-.305.611s-.305.305-.305.458v.611l-.153.153v.458c0,.153-.153.305,0,.458,0,.153.153.305.153.458s.153.153.153.305v.611h0c-.153,0-.153.153-.305.153H53.8c-.153-.153-.458-.153-.611-.305a.918.918,0,0,0-.611-.153c-.153,0-.305-.153-.458-.153a.918.918,0,0,0-.611.153h-.153c-.153,0-.458.153-.611.153s-.305,0-.305.153c-.153-.153-.305-.305-.458-.305h-.763c.153,0,.153-.153.153-.305.153-.153,0-.305.153-.458,0-.153.153-.305.153-.458v-.305a.533.533,0,0,1,.153-.305c0-.153-.153-.305-.153-.458a.561.561,0,0,0-.153-.458.561.561,0,0,0-.153-.458c-.153-.153-.305-.153-.458-.305h-.153V30.1a.15.15,0,0,0-.153-.153v-.611a.561.561,0,0,0-.153-.458l-.153-.153v-.153a.561.561,0,0,0-.153-.458c0-.153-.153-.305-.153-.458l-.153-.153v-.153a.561.561,0,0,0-.153-.458c0-.153-.153-.305-.305-.458s-.153-.305-.305-.305a.533.533,0,0,1-.305-.153c-.153-.153-.305-.153-.458-.305s-.305-.153-.305-.305c-.153,0-.305-.305-.458-.305H45.4l-.153-.153-.305-.305c-.153,0-.305-.153-.458-.153h0a.533.533,0,0,0-.153-.305A.561.561,0,0,0,43.877,24h-.305c0-.153,0-.153-.153-.153l-.305-.305c-.153-.153-.153-.153-.305-.153h-.153c0-.153-.153-.153-.153-.305-.153-.153-.153-.305-.305-.305h-.153v-.153c0-.153-.153-.305-.153-.458-.153-.153-.305-.153-.458-.305l-.153-.153v-.153a.561.561,0,0,0-.153-.458.15.15,0,0,0-.153-.153v-.458c0-.153-.153-.305-.305-.458a.15.15,0,0,0-.153-.153v-.153c0-.153-.153-.305-.153-.458h0v-.916h0v-.458c0-.153.153-.305,0-.458,0-.153-.153-.305-.153-.458h-.153V16.82c0-.153.153-.305.153-.458h0a.15.15,0,0,1,.153-.153.533.533,0,0,1,.153-.305v-.153c.153-.153.305-.153.305-.305.458,0,.458-.153.458-.305s.153-.305.153-.458h0c.153,0,.153,0,.153-.153a.561.561,0,0,1,.153-.458h0c.153,0,.153-.153.305-.305s.305-.153.305-.305v-.153h0a.561.561,0,0,1,.458-.153c.153-.153.153-.305.305-.458h.153a.54.54,0,0,0,.458-.458h.763c.153,0,.153-.153.305-.305,0-.153.153-.153.153-.305H45.4c.153,0,.153-.153.305-.305h0c.153,0,.305.153.458.153s.153-.153.305-.153h0c.153,0,.305.153.458.153a.561.561,0,0,0,.458-.153l.153-.153c.153,0,.153,0,.305.153h.458a.561.561,0,0,0,.458-.153.15.15,0,0,0,.153-.153h.763l.153.153c.153,0,.305.153.458.153h.458c.153,0,.305-.305.305-.305a.15.15,0,0,0,.153-.153h.305c.153,0,.153.153.305.153h.458c.153,0,.305.153.458,0,.153,0,.153-.153.305-.153a.533.533,0,0,0,.305.153h.305a.15.15,0,0,0,.153.153.561.561,0,0,0,.458.153c.153,0,.305.153.458.153s.153,0,.305-.153h0c.153,0,.305.305.458.305a.561.561,0,0,0,.458-.153h.153l.153.153a.533.533,0,0,1,.305.153H56.7l.153.153a.561.561,0,0,0,.458.153c.153,0,.305.153.458.153h.458c-.153-.153-.153,0,0,0h.458l.305.305a.533.533,0,0,1,.305.153h0c0,.153.153.153.305.305.153,0,.153.153.305.153h.153c0,.153.153.153.153.305v.153c0,.153.153.305.153.458s.305.153.305.305c.458,0,.458.153.611.153s.305.305.458.305c0,.153,0,.153.153.305a.15.15,0,0,1,.153.153V15.6a.561.561,0,0,0,.153.458v1.069c0,.153.153.305.305.458a.15.15,0,0,1,.153.153v.153a.533.533,0,0,0,.153.305c0,.153.153.153.153.305v.153c0,.153-.153.305-.153.458h0l-.153.153v.458c0,.153,0,.153,0,.305s0,.153.153.305c0,.153-.153.153-.153.305v.611a.15.15,0,0,0-.153.153c-.153.153,0,.305-.153.458v.153h0c-.153.153-.305.153-.305.305-.153.153,0,.305-.153.458h-.153c-.153.153-.153.305-.305.458,0,.153-.153.153-.305.305-.153,0-.153.153-.305.153-.153.153-.305.153-.458.305a.561.561,0,0,0-.153.458.328.328,0,0,0-.305.305.561.561,0,0,0-.153.458v.153h-.305c-.153,0-.153.153-.305.153h-.763a.328.328,0,0,0-.305.305l-.153.153h0a.561.561,0,0,0-.458.153c-.153.153-.153.305-.305.458C57.009,26.44,56.856,26.44,56.856,26.593ZM70.141,68.279a.561.561,0,0,1-.458-.153c-.153,0-.153,0-.305-.153a.793.793,0,0,0-.611-.305h-.611c-.153,0-.153.153-.305.153h-.458c-.153,0-.305-.153-.611,0a.561.561,0,0,0-.458.153h-.611c-.153,0-.458-.153-.611-.153h-.153a.533.533,0,0,0-.153-.305v-.153h0c0-.153.153-.305.153-.458a.561.561,0,0,0-.153-.458c0-.153-.153-.305-.153-.458-.153-.153-.305-.153-.305-.305h0v-.458c0-.153.153-.153.153-.305v-.458c0-.153-.153-.305-.305-.458a.328.328,0,0,0-.305-.305V62.477h0v-.153c0-.153,0-.305-.153-.305,0-.153.153-.153.153-.305V60.8c0-.153-.153-.305-.153-.458-.153-.153-.153-.305-.305-.305h0v-.458a.561.561,0,0,0-.153-.458l-.153-.153v-.611a.561.561,0,0,0-.153-.458c0-.153-.153-.305-.305-.458h0v-.763l-.153-.153h0v-.916c0-.153-.153-.153-.305-.305v-.305c0-.153,0-.305-.153-.305a.533.533,0,0,1-.153-.305v-.458c0-.153,0-.305-.153-.305h0c0-.153.153-.305.153-.458s-.153-.305-.153-.458-.153-.153-.153-.305.153-.305.153-.458-.153-.305-.153-.458-.153-.305-.153-.458-.153-.153-.305-.305v-.458c0-.153-.153-.153-.153-.305h0c0-.153.153-.305,0-.458a.561.561,0,0,0-.153-.458c0-.153-.153-.305-.153-.458s-.153-.153-.305-.153v-.153a.561.561,0,0,0-.153-.458h0v-.611a.533.533,0,0,0-.153-.305v-.153c0-.153.153-.305.153-.458v-.458a.561.561,0,0,0-.153-.458c0-.153-.305-.153-.305-.305v-.305a.561.561,0,0,0-.153-.458h0V43.39c0-.153-.153-.305-.305-.458h0v-.458a.561.561,0,0,0-.153-.458.328.328,0,0,0-.305-.305l-.153-.153c0-.153,0-.153-.153-.305,0-.153,0-.153-.153-.305,0-.153.153-.305.153-.458s-.153-.305-.153-.458-.153-.305-.153-.458v-.153a.561.561,0,0,0-.153-.458.561.561,0,0,0-.153-.458c0-.153-.153-.153-.305-.305h0v-.916c0-.153.153-.305.153-.458v-.458c0-.153-.153-.305-.153-.458a.15.15,0,0,0-.153-.153V35.3c0-.153-.153-.305-.153-.458a.15.15,0,0,0-.153-.153v-.763a.15.15,0,0,0-.153-.153v-.458c0-.153-.153-.305-.153-.458V32.7c0-.153.153-.153.153-.305s-.153-.305-.153-.458-.153-.305-.153-.458h0v-.305h0v-.153c0-.153.153-.305.153-.458h0c.153,0,.153-.153.305-.153.153-.153.153-.305.305-.458,0-.153.153-.305.153-.458s0-.153-.153-.305c.153-.153.153-.153.153-.305l.153-.153h0a.561.561,0,0,0,.153-.458.473.473,0,0,0,.153-.305c0-.153.153-.153.153-.305h.458c.153,0,.305-.153.458-.305s.305-.153.305-.305,0-.153.153-.305h0c.153,0,.153-.153.305-.305s.305-.153.305-.305v-.153h.458a.533.533,0,0,0,.305-.153l.305-.305h0c.153,0,.305-.153.458-.305.916.763.916.763,1.069.611a.561.561,0,0,0,.153-.458h.153a.561.561,0,0,0,.458-.153c.153-.153.153-.305.305-.458s.153-.305.305-.458V24h.153c.153-.153.305-.153.305-.305s.153-.305.153-.458v-.305l.153-.153c.153-.153,0-.305.153-.458,0-.153.153-.305.153-.458v-.305l.305-.305V20.79h0a.15.15,0,0,1,.153-.153c.153-.153.305-.153.305-.305v-.916c0-.153-.153-.305-.153-.458V18.5a.561.561,0,0,0-.153-.458c0-.153-.153-.153-.153-.305v-.611c0-.153-.153-.153-.153-.305s.153-.153.153-.305V15.6c0-.153-.153-.305-.305-.458s-.153-.305-.305-.305v-.153a.561.561,0,0,0-.153-.458c0-.153-.153-.153-.305-.305l-.153-.153v-.305c0-.153-.153-.153-.305-.305,0-.153-.153-.153-.153-.305V12.7a.561.561,0,0,0-.153-.458c0-.153-.153-.305-.305-.458-.458.305-.763.305-.763.153h-.153a.533.533,0,0,0-.305-.153l-.305-.305a.473.473,0,0,0-.305-.153h-.305l-.305-.305c-.153,0-.153-.153-.305-.153h0c0-.153-.153-.153-.153-.305-.153-.153-.153-.305-.305-.305H59.6L59.3,9.949c-.153-.153-.153-.305-.305-.305h-.458c0-.153-.153-.153-.153-.305s-.153-.153-.305-.305c-.153,0-.305-.153-.458-.153s-.305.153-.458.153l-.153-.153a.533.533,0,0,1-.305-.153.533.533,0,0,0-.153-.305.561.561,0,0,0-.458-.153c-.153,0-.305-.153-.458-.153h-.458a.561.561,0,0,0-.458.153h-.153a.561.561,0,0,0-.458.153h-.153c-.153,0-.153-.153-.305-.153h-.305l-.153-.153-.305-.305H51.97c-.153,0-.153.153-.305.153h-.611c-.153-.153-.153-.153-.305-.153H50.29c-.153,0-.305.153-.458.153s-.305.153-.458.153h-.305c-.153,0-.305-.153-.458,0a.15.15,0,0,0-.153.153c-.153,0-.153-.153-.305-.153s-.305.153-.458.153a.561.561,0,0,0-.458.153.15.15,0,0,0-.153.153h-.153a.561.561,0,0,0-.458.153c-.153,0-.153,0-.305.153h-.458a.533.533,0,0,0-.305.153c-.153.153-.305.153-.305.305h-.153c-.153,0-.305,0-.305.153-.153,0-.153.153-.305.153l-.153.153H44.03c-.153,0-.305,0-.305.153-.153,0-.153.153-.305.153l-.153.153c-.153,0-.153-.153-.305-.153a.533.533,0,0,0-.305.153.533.533,0,0,0-.305.153l-.153.153h-.153a.533.533,0,0,0-.305.153.328.328,0,0,0-.305.305c-.153.153-.153.305-.305.305h0c-.153,0-.153.153-.305.305l-.305.305v.153h0c-.153,0-.153.305-.305.305l-.305.305c0,.153-.153.153-.153.305H39.6c-.153.153-.305.153-.458.305a.561.561,0,0,0-.153.458c0,.153-.153.305-.153.458s.153.305.153.458v.305c0,.153-.153.153-.153.305V15.6c-.153,0-.153.153-.153.305v.916c0,.153,0,.153.153.305,0,.153-.153.153-.153.305v.763c-.153.153-.305.153-.305.305v.916c0,.153.153.153.153.305a.561.561,0,0,0,.153.458.561.561,0,0,0,.153.458v.916a.328.328,0,0,0,.305.305c.153.153.153.305.305.305a.15.15,0,0,0,.153.153c0,.153.153.305.153.458a.15.15,0,0,0,.153.153v.458c0,.153.153.305.153.458.153.153.153.305.305.458s.305,0,.458.153c.153,0,.305.153.458.153h0c.153.153.153.305.305.305a.473.473,0,0,0,.305.153h.153c0,.153,0,.305.153.305l.305.305h.305v.153c0,.153.153.153.305.305l.305.305a.473.473,0,0,0,.305.153h.153l.153.153c.153.153.153.305.305.305h.153V27.2c.153.153.153.305.305.458a.561.561,0,0,0,.458.153c.153,0,.153.153.305.153l.153.153v.153h0c0,.153.153.305.153.458s.153.305.305.458l.153.153c0,.153.153.153.153.305s.153.305.153.458a.328.328,0,0,0,.305.305c.153,0,.153.153.305.153h0v.153c0,.153-.153.305-.153.458a.15.15,0,0,0,.153.153.561.561,0,0,1-.153.458c0,.153-.153.305-.153.458a.561.561,0,0,0,.153.458h0v.458l-.305.305v.458c0,.153-.153.305,0,.458h0c0,.153-.305.305-.305.458a.561.561,0,0,0,.153.458V35.6c-.153.153-.153.153-.153.305v.916h0c0,.153-.153.153-.153.305v.305l-.305.305V38.2c0,.153-.153.305-.153.458s0,.305.153.305h0a.533.533,0,0,1-.153.305v.153h0a.561.561,0,0,0-.153.458c0,.153-.153.305-.153.458a.561.561,0,0,0,.153.458h0c0,.153-.153.153-.153.305a.533.533,0,0,1-.153.305h0c-.916,1.069-1.069,1.222-1.069,1.374v1.374c0,.153-.153.153-.153.305v.458h0l-.153.153a.561.561,0,0,0-.153.458c0,.153-.153.305-.153.458v.305c0,.153-.153.153-.153.305s-.153.305-.153.458v.611c0,.153-.153.153-.153.305v.611l-.153.153a.561.561,0,0,0-.153.458c0,.153-.153.305-.153.458v.305l-.153.153v1.069c-.153.153-.153.153-.153.305v.458c0,.153-.153.305,0,.458V52.7a.533.533,0,0,1-.153.305c-.153,0-.153.153-.305.153a.561.561,0,0,0-.153.458c0,.153-.153.305-.153.458v.763c0,.153-.153.153-.153.305v.763c0,.153-.153.153-.153.305v1.069c0,.153-.153.153-.153.305v.458h0a.15.15,0,0,0-.153.153.561.561,0,0,0-.153.458v.458h0c0,.153-.153.153-.153.305a.473.473,0,0,0-.153.305c0,.153-.153.305-.153.458v.458h0l-.305.305v.458c0,.153.153.305.153.458h0a.561.561,0,0,1-.153.458c0,.153-.153.305-.153.458v.305l-.153.153c0,.153-.153.305-.153.458s.153.305.153.458h0c-.153.153-.153.153-.153.305s-.153.153-.153.305v.153h0c-.153.153-.153.305-.305.305v.916h0a.15.15,0,0,0-.153.153c0,.153-.153.305-.153.458v.305h0a.561.561,0,0,0-.153.458c0,.153-.153.305-.153.458s0,.153-.153.305h0c-.153,0-.153.153-.305.153a1.158,1.158,0,0,0-.611.305h-.458c-.153,0-.458-.153-.611,0H35.02l-.153.153c-.153,0-.305-.153-.458-.153H33.8a1.154,1.154,0,0,0-.611.153h-.153a.15.15,0,0,1,.153-.153c0-.153.153-.305.153-.458h0l.305-.305c.153-.153,0-.305,0-.458V66.9c0-.153.153-.153.153-.305v-.611h0c.153-.153.305-.153.305-.305a.561.561,0,0,1,.153-.458c0-.153,0-.305.153-.305l.153-.153c.153-.153,0-.305.153-.458v-.458a.561.561,0,0,0-.153-.458h0v-.611h0c.153,0,.153-.153.305-.153.153-.153.153-.305.305-.458,0-.153.153-.305.153-.458s0-.153-.153-.305c.153-.153.153-.153.153-.305v-.916c0-.153,0-.153-.153-.153,0-.153.153-.153.153-.305V59.27h0l.305-.305.305-.305V58.2h0a.15.15,0,0,0,.153-.153.561.561,0,0,0,.153-.458c0-.153.153-.305.153-.458v-.305h0a.561.561,0,0,0,.153-.458c0-.153.153-.305.153-.458s0-.153-.153-.305l.153-.153c0-.153.153-.305.153-.458s-.153-.305-.153-.458v-.153c0-.153.153-.153.153-.305V53.62c0-.153-.153-.153-.153-.305h0c0-.153.153-.153.153-.305h0c.153-.153.305-.153.305-.305a.561.561,0,0,0,.153-.458c0-.153.153-.305.153-.458V50.566a.473.473,0,0,0,.153-.305l.305-.305V49.5c0-.153,0-.153-.153-.305v-.153c0-.153.153-.305.153-.458s.153-.305.153-.458h0c0-.153.153-.305.153-.458V47.36c.153,0,.153-.153.153-.305a.561.561,0,0,0,.153-.458c0-.153.153-.305,0-.458,0-.153,0-.153-.153-.305h0v-.611c.153-.153.305-.153.305-.305s.153-.305.153-.458-.153-.305-.153-.458,0-.305-.153-.305h0a.533.533,0,0,1,.153-.305v-.305c0-.153.153-.153.153-.305s.153-.153.153-.305l.305-.305c.153-.153.305-.305.305-.458a.561.561,0,0,0-.153-.458v-.305h0a.561.561,0,0,1,.153-.458c0-.153.153-.305,0-.458,0-.153,0-.305-.153-.305v-.153a.533.533,0,0,1,.153-.305v-.305l.153-.153c0-.153.153-.153.153-.305V38.35c.153,0,.153,0,.153-.153a.561.561,0,0,0,.153-.458c0-.153.153-.305.153-.458v-.305a.473.473,0,0,1,.153-.305c0-.153.153-.305.153-.458v-.458a.533.533,0,0,0,.153-.305v-.916h0c0-.153.153-.305.153-.458s-.153-.305-.153-.458a.561.561,0,0,0-.153-.458.328.328,0,0,0-.305-.305c-.153-.153-.153-.305-.305-.305A.561.561,0,0,1,39.6,32.4H39.3a.15.15,0,0,0-.153-.153c-.153,0-.153-.153-.305-.153h-.153l-.305-.305c-.153-.153-.153-.305-.305-.305h-.305c0-.153,0-.153-.153-.305,0-.153-.153-.153-.305-.305l-.305-.305h0a.561.561,0,0,0-.153-.458l-.305-.305h0c0-.153-.153-.153-.153-.305a.328.328,0,0,0-.305-.305.561.561,0,0,0-.458-.153c-.153,0-.153-.153-.305-.153,0-.153,0-.153-.153-.153-.153-.153-.153-.153-.305-.153v-.305a.533.533,0,0,0-.153-.305c-.153-.153-.153-.305-.305-.305h-.153v-.153c0-.153-.153-.305-.153-.458-.153-.153-.153-.153-.305-.153v-.611c0-.153-.305-.153-.305-.305h0v-.305c0-.153-.153-.153-.305-.305v-.305h0c0-.153-.153-.305-.153-.458s-.153-.305-.153-.458L32.73,24v-.153a.561.561,0,0,0-.153-.458.561.561,0,0,0-.153-.458v-.153c0-.153-.153-.305-.153-.458a.561.561,0,0,0-.153-.458h0c0-.153.153-.305.153-.458s-.153-.305-.153-.458a.561.561,0,0,0-.153-.458v-.763l-.153-.153h0c0-.153.153-.153.153-.305v-.916a.15.15,0,0,0-.153-.153v-.305c0-.153.153-.305,0-.458h0l.153-.153V16.209a.15.15,0,0,0,.153-.153.561.561,0,0,1,.153-.458v-.305c1.374-1.069,1.374-1.222,1.374-1.374s.153-.305.153-.458a.533.533,0,0,1,.153-.305c0-.153.153-.153.153-.305v-.611h0l.305-.305.305-.305v-.611l.153-.153v-.153h.153a.561.561,0,0,0,.458-.153c.153-.153.153-.305.305-.458s.153-.305.305-.458V9.491h0c.153-.153.153-.305.305-.458,0-.153.153-.153.153-.305h0c.153,0,.305-.153.458-.153.153-.153.153-.305.305-.458a.561.561,0,0,0,.153-.458h0a.15.15,0,0,0,.153-.153c.153-.153.305-.153.305-.305V7.048h.153c.153,0,.305-.153.458-.305s.305-.153.305-.305a.561.561,0,0,0,.153-.458.15.15,0,0,0,.153-.153h.916c.153,0,.305-.153.458-.305s.305-.153.458-.305h0c.153,0,.153,0,.305-.153.153,0,.153-.153.305-.305.153,0,.153.153.305,0,.153,0,.305-.153.458-.153-.153.305-.153,0-.153,0a.15.15,0,0,1,.153-.153H42.5c.153,0,.153-.153.305-.305h.458a.533.533,0,0,0,.305-.153.561.561,0,0,0,.458-.153h.305c.153,0,.153-.153.305-.153s.153-.153.305-.153a.473.473,0,0,1,.305.153h.611l.153-.153h.305c.153,0,.153-.153.305-.153h.153l.153.153h.916c.153,0,.305-.153.458-.153.153-.305.305-.305.305-.458V2.772h.458l.305.305h.458c.153,0,.305-.153.458-.153s.153,0,.305-.153h0c.153,0,.305.153.458.153a.533.533,0,0,0,.305-.153h0a.473.473,0,0,0,.305.153c.153,0,.305.153.458.153s.305,0,.305-.153l.153.153a.561.561,0,0,1,.458.153H53.5c.153,0,.153-.153.305-.153h.153c.153,0,.305.153.458.153h.458a.15.15,0,0,1,.153-.153l.153.153h.305l.153.153a.561.561,0,0,0,.458.153c.153,0,.305.153.458.153a.561.561,0,0,0,.458-.153.533.533,0,0,0,.305.153h.305a.15.15,0,0,0,.153.153.473.473,0,0,0,.305.153h.153c.153.153.305.153.458.305.305.153.458.305.611.305h1.069c0,.153.153.153.305.305s.153.305.305.305a.561.561,0,0,0,.458.153c.153,0,.305.153.458.153h.153l.153.153a.533.533,0,0,1,.305.153.561.561,0,0,0,.458-.153h0l.153.153h.305v.305c.153.153.305.153.305.305h.153a.328.328,0,0,0,.305.305c.153.153.153.305.305.305a.561.561,0,0,0,.458.153c.153,0,.153.153.305.153a.15.15,0,0,0,.153.153.473.473,0,0,0,.305.153h0c0,.153,0,.153.153.305s.305.153.305.305a.15.15,0,0,1,.153.153v.153c.153.153.153.305.305.305h.305v.305a.533.533,0,0,0,.153.305l.153.153V9.8c0,.153.153.305.153.458.153.153.153.305.305.458h0v.305c0,.153.153.305.153.458.153.153.153.305.305.305a.15.15,0,0,1,.153.153v.153a.15.15,0,0,0,.153.153V12.7a.561.561,0,0,0,.153.458.328.328,0,0,0,.305.305l.153.153v.305h0v.153c0,.153-.153.305,0,.458,0,.153.153.305.153.458a.561.561,0,0,0,.153.458l.305.305V15.9c-.153,0-.153.153-.153.305a.561.561,0,0,1-.153.458v.458c0,.153.153.305.153.458s0,.153.153.305h0c0,.153-.153.305-.153.458v.916c0,.153-.153.305,0,.458v.153c0,.153-.153.153-.153.305a.561.561,0,0,0,.153.458V21.1c-.153.153-.153.153-.153.305s-.153.305-.153.458v.458a.15.15,0,0,0-.153.153v.763l-.305.305c0,.153-.153.305-.153.458v.611a.15.15,0,0,0-.153.153v.763l-.305.305v.153a.328.328,0,0,0-.305.305c0,.153-.153.305-.153.458V26.9h-.153c-.153.153-.153.305-.305.305-.153.153-.153.305-.305.458v.305l-.305.305c-.153.153-.305.153-.305.305v.153a.15.15,0,0,0-.153.153l-.305.305h0a.328.328,0,0,0-.305.305c-.153.153-.305.153-.305.305s0,.153-.153.305h-.153l-.305.305c0,.153-.153.153-.153.305a.15.15,0,0,0-.153.153.54.54,0,0,0-.611.611.15.15,0,0,1-.153.153.15.15,0,0,0-.153.153l-.153.153h-.458c-.153,0-.305.153-.458.153s-.305.153-.458.153c-.153.153-.153.305-.305.458a.561.561,0,0,0-.153.458v.458a.561.561,0,0,0,.153.458c0,.153.153.153.305.305v.458a.561.561,0,0,0,.153.458c0,.153.153.153.305.305v.763c0,.153.153.153.305.305v.153c0,.153-.153.305-.153.458s.153.305.153.458.153.153.153.305V38.2a.561.561,0,0,0,.153.458.561.561,0,0,0,.153.458h.153c0,.153-.153.153-.153.305a.561.561,0,0,0,.153.458c0,.153.153.153.305.305v.611a.533.533,0,0,0,.153.305c0,.153.153.153.153.305s-.153.153-.153.305v.305h0v1.374h0c0,.153.153.305.153.458a.561.561,0,0,0,.153.458.15.15,0,0,0,.153.153v.763c0,.153.153.153.305.305,0,.153.153.153.153.305v.458c0,.153.153.153.153.305v.611a.561.561,0,0,0,.153.458l.153.153c0,.153-.153.153-.153.305s.153.305.153.458.153.305.153.458l.153.153v.763a.15.15,0,0,0,.153.153.15.15,0,0,1-.153.153c0,.153-.153.305-.153.458s.153.305.153.458.153.305.153.458h0v.458c0,.153.153.305.153.458a.328.328,0,0,0,.305.305.15.15,0,0,1,.153.153v.153a.533.533,0,0,0,.153.305.561.561,0,0,0,.153.458h.153v.763a.15.15,0,0,0,.153.153v.611c0,.153-.153.305,0,.458,0,.153.153.153.305.305v.763a.328.328,0,0,0,.305.305.15.15,0,0,0,.153.153c0,.153-.153.153-.153.305a.533.533,0,0,0,.153.305v.763a.15.15,0,0,0,.153.153v.611a.561.561,0,0,0,.153.458v.916A.15.15,0,0,0,68,61.1v.763c0,.153.153.305.153.458s.153.153.153.305v.305c0,.153.153.305.153.458s.153.153.153.305-.153.305-.153.458a.561.561,0,0,0,.153.458c0,.153.153.305.153.458a.15.15,0,0,1,.153.153c0,.153,0,.153.153.305v.305a.15.15,0,0,1-.153.153c0,.153-.153.305-.153.458s.153.305.153.458.153.305.153.458h0v.153c0,.153.153.305.153.458a.533.533,0,0,0,.153.305c0,.153.153.153.153.305.764-.458.764-.458.611-.305Z" transform="translate(1223.434 290.512) rotate(45)"/>
    <path id="パス_67" data-name="パス 67" class="cls-2" d="M7251.237,3548.691l34.713-3.642-4.5,20.551Z" transform="matrix(0.914, -0.407, 0.407, 0.914, -6801.39, 116.125)"/>
    <path id="パス_69" data-name="パス 69" class="cls-2" d="M7251.237,3548.691l34.713-3.642-4.5,20.551Z" transform="translate(-255.22 8281.673) rotate(-106)"/>
    <path id="パス_68" data-name="パス 68" class="cls-2" d="M7251.237,3551.2l58.631-6.151-7.607,34.71Z" transform="matrix(0.966, 0.259, -0.259, 0.966, -4825.903, -4888.602)"/>
  </g>
</svg>
