<svg xmlns="http://www.w3.org/2000/svg" viewBox="0 0 68.45 55.78"><defs><style>.cls-1{fill:#eb6d4e;}</style></defs><title>icon_home 18</title><g id="loco_home"><path class="cls-1" d="M68.33,27.28a1.28,1.28,0,0,0-.49-.86l-.17-.14A1.23,1.23,0,0,0,67.4,26a1.39,1.39,0,0,0-.39-.22l-.14-.06a1.11,1.11,0,0,0,0-.16,1.43,1.43,0,0,0-.22-.37c-.1-.1-.28-.09-.41-.16a1.7,1.7,0,0,0-.26-.09.7.7,0,0,0-.07-.25,1.47,1.47,0,0,0-.31-.33,1.43,1.43,0,0,0-.35-.29l-.11,0A1.11,1.11,0,0,0,65,23.6a1.78,1.78,0,0,0-.42-.36,1.38,1.38,0,0,0-1-.45h-.2l-.21-.11-.06,0a.52.52,0,0,0,0-.3c-.07-.17-.26-.27-.37-.4a1,1,0,0,0-.89-.49h0a1.23,1.23,0,0,0-.13-.19c-.1-.12-.12-.32-.25-.41a.74.74,0,0,0-.32-.09l-.08-.1a1.63,1.63,0,0,0-.29-.42,1.49,1.49,0,0,0-.45-.2.71.71,0,0,0,0-.14c-.07-.15-.27-.2-.39-.32a1.44,1.44,0,0,0-.37-.3,1.65,1.65,0,0,0-.19-.07,1.58,1.58,0,0,0-.16-.48,1.91,1.91,0,0,0-.23-.26,1,1,0,0,1,0-.13,1.52,1.52,0,0,0-.07-.39c.09-.13.26-.22.3-.37a1.59,1.59,0,0,0-.05-.49,1.51,1.51,0,0,0-.07-.47h0a1.15,1.15,0,0,0,.12-.35,1.32,1.32,0,0,0,0-.43,2.32,2.32,0,0,0-.07-.37.89.89,0,0,1,0-.21,1.43,1.43,0,0,0,.07-.47c0-.16.11-.35.05-.52a.9.9,0,0,0-.24-.31,1.67,1.67,0,0,0,0-.41,1.38,1.38,0,0,0,0-.41,1.46,1.46,0,0,0,.18-.44,1.52,1.52,0,0,0,0-.49,1.64,1.64,0,0,0-.07-.5.67.67,0,0,0-.09-.13c0-.07,0-.14,0-.22s.16-.34.14-.51a1.18,1.18,0,0,0,0-.12c0-.13.07-.28.11-.41a1.71,1.71,0,0,0,.13-.52,1.72,1.72,0,0,0-.16-.51,1.69,1.69,0,0,0-.16-.51.77.77,0,0,0-.21-.18.45.45,0,0,1,0-.06,1.36,1.36,0,0,0,0-.21,1.61,1.61,0,0,0,.23-.43,1.56,1.56,0,0,0,.19-.45,1.56,1.56,0,0,0,0-.49,1.66,1.66,0,0,0-.11-.49A.38.38,0,0,0,59,6.34s0,0,0-.07a1.36,1.36,0,0,0,.06-.42A1.36,1.36,0,0,0,59,5.46h0A1,1,0,0,0,59,5.31a1.46,1.46,0,0,0,.11-.46,1.58,1.58,0,0,0,0-.49.6.6,0,0,0,0-.11.74.74,0,0,0,.2-.24,1.74,1.74,0,0,0,.08-.53,1.7,1.7,0,0,0,0-.53,1.71,1.71,0,0,0-.18-.51A1.81,1.81,0,0,0,59,2a.38.38,0,0,0-.12-.05l0-.08a1.54,1.54,0,0,0-.15-.46,1.59,1.59,0,0,0-.37-.32c-.13-.11-.2-.3-.35-.36a1.67,1.67,0,0,0-.5-.1.46.46,0,0,0-.24.07.62.62,0,0,0-.11-.12,1.43,1.43,0,0,0-.39-.22A1.51,1.51,0,0,0,56.27.2c-.15,0-.28.13-.43.17l-.14,0a1.9,1.9,0,0,1-.33,0,1.47,1.47,0,0,0-.49,0,.76.76,0,0,1-.2,0,.76.76,0,0,0-.25-.2,1.66,1.66,0,0,0-.51-.06,1.62,1.62,0,0,0-.51,0,2,2,0,0,0-.24.09L53.11.19A1.7,1.7,0,0,0,52.62,0c-.17,0-.33.11-.5.15a1.47,1.47,0,0,0-.46.15l-.12.09a.75.75,0,0,0-.28-.05,1.53,1.53,0,0,0-.45.15h0a1.71,1.71,0,0,0-.34-.11.79.79,0,0,0-.36.08A1.27,1.27,0,0,0,49.8.16c-.15-.09-.36,0-.53-.06a1.53,1.53,0,0,0-.5,0,1.56,1.56,0,0,0-.49.13,1.69,1.69,0,0,0-.47.23.79.79,0,0,0-.15.2,1.77,1.77,0,0,0-.46.13,1.58,1.58,0,0,0-.46.17,1.59,1.59,0,0,0-.37.34,1.69,1.69,0,0,0-.29.42,1,1,0,0,0,0,.44,1.46,1.46,0,0,0-.29.31,1.6,1.6,0,0,0-.24.42c0,.15.06.32.07.48a1.39,1.39,0,0,0,.07.45v0c0,.1,0,.21-.08.32a1.7,1.7,0,0,0-.16.51,1.75,1.75,0,0,0,.16.51,2.4,2.4,0,0,0,.17.43v0a1.52,1.52,0,0,0,.07.46c0,.13,0,.27,0,.39h0a1.57,1.57,0,0,0-.18.46,1.58,1.58,0,0,0,.08.48s0,0,0,.05-.05,0-.06.06a1.23,1.23,0,0,0,0,.14,1.83,1.83,0,0,0-.44-.27L45,7.23A.59.59,0,0,0,45,7a1.73,1.73,0,0,0-.42-.32,1.69,1.69,0,0,0-.44-.28l-.15,0a1.33,1.33,0,0,0-.16-.2c-.11-.12-.16-.34-.31-.42A1.67,1.67,0,0,0,43,5.7H42.9a.39.39,0,0,0-.06-.2c-.1-.14-.28-.19-.41-.28A1.83,1.83,0,0,0,42.07,5,.74.74,0,0,0,42,4.79a1.43,1.43,0,0,0-.33-.28c-.12-.1-.19-.27-.32-.32A1.34,1.34,0,0,0,41,4.11a.69.69,0,0,0-.1-.35c-.1-.12-.28-.16-.41-.24a1.46,1.46,0,0,0-.4-.21H40a.33.33,0,0,0,0-.16c-.08-.13-.24-.19-.34-.28a1.36,1.36,0,0,0-.34-.26h0l-.09-.16A1.57,1.57,0,0,0,38.92,2a1.62,1.62,0,0,0-.44-.24,3.3,3.3,0,0,0-.33-.16.63.63,0,0,0-.09-.15,1.42,1.42,0,0,0-.34-.29A1.51,1.51,0,0,0,37.33,1c-.15,0-.3.07-.45.09l-.21,0a.73.73,0,0,0-.13-.14,1.37,1.37,0,0,0-.4-.15,1.35,1.35,0,0,0-.4-.15,1.39,1.39,0,0,0-.41.1h0A1.33,1.33,0,0,0,35,.49a1.41,1.41,0,0,0-.4-.15c-.14,0-.27.1-.41.13h0s0-.07-.08-.08a1.72,1.72,0,0,0-.51-.14c-.17,0-.33.11-.5.14a1.44,1.44,0,0,0-.46.15h0a.93.93,0,0,0-.24-.07,1.73,1.73,0,0,0-.53.09,1.7,1.7,0,0,0-.53.09,1.76,1.76,0,0,0-.39.38,1.72,1.72,0,0,0-.35.4c0,.06,0,.12-.06.18a1.41,1.41,0,0,0-.38.22,1.45,1.45,0,0,0-.21.4l-.11.17h0a1.32,1.32,0,0,0-.39.15,1.4,1.4,0,0,0-.35.24.38.38,0,0,0-.07.18h0a1.4,1.4,0,0,0-.42.15,1.45,1.45,0,0,0-.28.35c-.1.12-.27.2-.32.34h-.05c-.14,0-.22.19-.34.26a1.2,1.2,0,0,0-.31.25.61.61,0,0,1-.12.09H27c-.16,0-.28.18-.42.26a1.52,1.52,0,0,0-.39.27.75.75,0,0,0-.14.28.66.66,0,0,0-.37,0c-.17.07-.28.26-.42.37a1.72,1.72,0,0,0-.39.37.47.47,0,0,0,0,.07l-.14,0a1.8,1.8,0,0,0-.51.2c-.14.11-.17.33-.27.47a1.56,1.56,0,0,0-.25.45s0,.07,0,.11a.63.63,0,0,0-.32.12c-.11.11-.13.28-.2.4l-.06.11a.34.34,0,0,0-.17,0c-.14,0-.23.19-.35.27a1.35,1.35,0,0,0-.32.27l0,0a1.12,1.12,0,0,0-.37.06c-.14.06-.21.24-.34.34a1.37,1.37,0,0,0-.31.33s0,.09-.06.13a1.36,1.36,0,0,0-.31.06c-.16.05-.38,0-.52.1s-.2.3-.3.44a1.74,1.74,0,0,0-.26.42.52.52,0,0,0-.28.09c-.13.11-.17.29-.25.43a2.69,2.69,0,0,0-.17.3l-.21.11a1.6,1.6,0,0,0-.31.19h-.06c-.18,0-.34.16-.52.22a1.56,1.56,0,0,0-.47.22c-.15.1-.39.11-.5.26a.73.73,0,0,0-.12.31l-.13.05c-.16.08-.23.29-.36.42a1.74,1.74,0,0,0-.21.23.62.62,0,0,0-.17,0,1.73,1.73,0,0,0-.46.27,1.68,1.68,0,0,0-.42.32.89.89,0,0,0-.14.33,2.18,2.18,0,0,0-.33.19c-.15.1-.17.33-.28.47a1.59,1.59,0,0,0-.21.38,2.61,2.61,0,0,0-.34.17,1.46,1.46,0,0,0-.39.23,1.8,1.8,0,0,0-.12.16h0a1.73,1.73,0,0,0-.53.11c-.17.08-.26.24-.4.37s-.31.21-.4.37a.59.59,0,0,0,0,.13h0a1.74,1.74,0,0,0-.47.27,1.75,1.75,0,0,0-.26.48,2.32,2.32,0,0,1-.13.2h0a1.52,1.52,0,0,0-.33.33,1.49,1.49,0,0,0-.3.36s0,.1,0,.15-.28,0-.38.08-.16.24-.24.35a1.85,1.85,0,0,0-.18.28H9.51a1.38,1.38,0,0,0-.36.22c-.13.08-.3.09-.39.19a1.44,1.44,0,0,0-.22.38s0,0,0,0l-.06,0a1.3,1.3,0,0,0-.39.14.91.91,0,0,0-.22.26l-.12,0a1.72,1.72,0,0,0-.54.06,1.77,1.77,0,0,0-.41.35L6.69,21l-.23.1a1.69,1.69,0,0,0-.48.23,1.75,1.75,0,0,0-.29.45c-.1.16-.3.27-.34.44a1.39,1.39,0,0,0,0,.26l0,0a1.29,1.29,0,0,0-.32.27,1,1,0,0,0-.41,0,1.72,1.72,0,0,0-.45.28,1.68,1.68,0,0,0-.42.31,1.69,1.69,0,0,0-.27.46l0,.05a.35.35,0,0,0-.1,0,1.74,1.74,0,0,0-.33.41.34.34,0,0,0,0,.12l-.15,0c-.14.07-.23.22-.35.33s-.32.17-.4.31H2l-.29.14a1.65,1.65,0,0,0-.45.26A1.7,1.7,0,0,0,1,26c-.09.16-.27.28-.3.45s0,.08,0,.11a.9.9,0,0,0-.21.18,1.44,1.44,0,0,0-.16.42,1.41,1.41,0,0,0-.16.42.71.71,0,0,0,.05.26,1,1,0,0,0-.23.35,1.72,1.72,0,0,0,0,.53,1.69,1.69,0,0,0,0,.52,1.7,1.7,0,0,0,.25.47,1.8,1.8,0,0,0,.36.41c.15.1.36.05.54.1l.11,0,0,.06c.08.11.09.28.2.37a.58.58,0,0,0,0,.18,1.52,1.52,0,0,0,.23.41,1.48,1.48,0,0,0,.27.38.91.91,0,0,0,.33.15c0,.13.12.24.16.36a1.47,1.47,0,0,0,.2.41,1.48,1.48,0,0,0,.39.25h0a1,1,0,0,0,.1.31c.09.16.3.21.44.33a1.56,1.56,0,0,0,.41.3,1.59,1.59,0,0,0,.49.15,1.72,1.72,0,0,0,.53,0,1.72,1.72,0,0,0,.48-.24A2.08,2.08,0,0,0,6,33.48a.45.45,0,0,0,.24.07c.16,0,.29-.14.43-.2a1.46,1.46,0,0,0,.41-.21,1.48,1.48,0,0,0,.24-.39h0a.81.81,0,0,0,.25,0c.15,0,.24-.2.37-.28a1.32,1.32,0,0,0,.34-.27,1.35,1.35,0,0,0,.23-.37l0-.08h0a1.52,1.52,0,0,0,.43-.2.78.78,0,0,0,.19-.26.38.38,0,0,0,.15,0h0s0,0,0,0a.54.54,0,0,0,.14.25.45.45,0,0,0-.09.08,1.56,1.56,0,0,0-.13.46,1.21,1.21,0,0,0,0,.94,1.62,1.62,0,0,0,.21.45s0,0,.07,0a.92.92,0,0,1,0,.13,1.45,1.45,0,0,1-.13.26,1.53,1.53,0,0,0-.24.44,1.57,1.57,0,0,0-.08.5,1.69,1.69,0,0,0,0,.52,1.4,1.4,0,0,0,.26.39,2.08,2.08,0,0,0,0,.29.52.52,0,0,0,.13.26l0,0c-.09.13,0,.33-.08.48a1.36,1.36,0,0,0-.06.45,2.82,2.82,0,0,1-.05.35h0a1.68,1.68,0,0,0-.15.5,1.63,1.63,0,0,0-.09.51,1.69,1.69,0,0,0,.19.48.67.67,0,0,1,0,.11c0,.07,0,.14,0,.22S9,39.81,9,40a1.87,1.87,0,0,0,.17.54s0,0,0,0a.72.72,0,0,0,0,.08,1.68,1.68,0,0,0,0,.52,3.47,3.47,0,0,0,0,.43c0,.14,0,.3,0,.44a1.45,1.45,0,0,0,0,.48.59.59,0,0,1,0,.14,1.5,1.5,0,0,0-.19.34,1,1,0,0,0,0,1,1.64,1.64,0,0,0,.18.49l0,0a.42.42,0,0,0,0,.06,1.39,1.39,0,0,0,.08.42,1.35,1.35,0,0,0,.13.41l0,0,0,0a1.31,1.31,0,0,0-.13.4,1.41,1.41,0,0,0-.05.43,1,1,0,0,0,.14.32s-.06.08-.08.12,0,.32,0,.47a1.31,1.31,0,0,0,0,.44,1.22,1.22,0,0,1,0,.27l0,0a1.46,1.46,0,0,0-.06.45,1.44,1.44,0,0,0-.06.45,1.48,1.48,0,0,0,.2.41v0a.9.9,0,0,0-.12.26,1.5,1.5,0,0,0,0,.46.6.6,0,0,1,0,.1l-.07.08c-.09.15,0,.35-.06.52a1.49,1.49,0,0,0-.05.49,1.53,1.53,0,0,0,.12.48,1.65,1.65,0,0,0,.22.46.8.8,0,0,0,.2.16.79.79,0,0,0,0,.33,1.43,1.43,0,0,0,.2.39,1.11,1.11,0,0,0,.59.62l.12.06a1.33,1.33,0,0,0,.21.37c.1.12.12.33.26.41a1.57,1.57,0,0,0,.47.11l.29.07a.48.48,0,0,0,.12.22,1.58,1.58,0,0,0,.42.24c.14.06.32,0,.47,0a1.32,1.32,0,0,0,.44,0,1.48,1.48,0,0,1,.29,0,1.22,1.22,0,0,0,.27.13,1.39,1.39,0,0,0,.42.12,1.39,1.39,0,0,0,.41-.12l.21-.07.09,0a1.38,1.38,0,0,0,.43.07,1.43,1.43,0,0,0,.4-.16,1.08,1.08,0,0,1,.22-.05.32.32,0,0,0,.11.1,1.46,1.46,0,0,0,.45,0,2.08,2.08,0,0,0,.34,0l.05,0a1.52,1.52,0,0,0,.42.23,1.53,1.53,0,0,0,.48,0h.15a.85.85,0,0,0,.15.11,1.73,1.73,0,0,0,.53.08,1.71,1.71,0,0,0,.53.08.65.65,0,0,0,.18-.07l.08,0a1.86,1.86,0,0,0,.54.17c.18,0,.35-.15.53-.2a1.61,1.61,0,0,0,.49-.19,1.85,1.85,0,0,0,.17-.15l.13,0a.76.76,0,0,0,.3-.08,1.34,1.34,0,0,0,.25.15,1.56,1.56,0,0,0,.45.17,1.56,1.56,0,0,0,.47-.1,2.61,2.61,0,0,0,.34-.1h0c.16.07.28.26.46.27a1.72,1.72,0,0,0,.51-.13,1.64,1.64,0,0,0,.49-.15.63.63,0,0,0,.18-.17,1.31,1.31,0,0,0,.4,0,1.4,1.4,0,0,0,.41-.1s0,0,.07-.07A1,1,0,0,0,26,55a1.36,1.36,0,0,0,.44,0,1.47,1.47,0,0,0,.44-.12,1.47,1.47,0,0,0,.31-.33,2.41,2.41,0,0,0,.21-.27,1.6,1.6,0,0,0,.4-.13,1.82,1.82,0,0,0,.47-.29c.12-.13.11-.36.19-.52a1.58,1.58,0,0,0,.17-.49,1.62,1.62,0,0,0,0-.52,1.75,1.75,0,0,0-.11-.53.7.7,0,0,0-.1-.13,1.67,1.67,0,0,1,0-.22,1.48,1.48,0,0,0,.06-.46.46.46,0,0,0,0-.12l0-.06a1.7,1.7,0,0,0,.25-.48,1.75,1.75,0,0,0-.07-.53,1.71,1.71,0,0,0-.11-.52,2.12,2.12,0,0,0-.14-.2,3,3,0,0,0,0-.35,1.45,1.45,0,0,0-.1-.45.55.55,0,0,0-.12-.15,1.33,1.33,0,0,0,.15-.4,1.43,1.43,0,0,0-.08-.43c0-.13,0-.27,0-.39a.86.86,0,0,0,.07-.12,1.35,1.35,0,0,0,.12-.42,1.46,1.46,0,0,0,0-.45.66.66,0,0,0-.07-.18l0-.09a1.61,1.61,0,0,0,.29-.42,1.66,1.66,0,0,0,0-.51,1.62,1.62,0,0,0,0-.5,1.8,1.8,0,0,0-.17-.33,1.91,1.91,0,0,0,0-.4,2,2,0,0,0,0-.37,1.47,1.47,0,0,0,.14-.17,1.78,1.78,0,0,0,.26-.48,1.78,1.78,0,0,0,0-.55,1,1,0,0,0-.45-.94,1.17,1.17,0,0,0,.07-.39,1.47,1.47,0,0,0-.08-.4.7.7,0,0,0,.25-.3,1.8,1.8,0,0,0,0-.56,1.72,1.72,0,0,0-.07-.54.78.78,0,0,0-.19-.26,1.09,1.09,0,0,0,0-.36,1,1,0,0,0-.15-.34c0-.09,0-.18.05-.26l0-.11a1.93,1.93,0,0,0,.44-.11.79.79,0,0,0,.29-.27l.22,0a1.34,1.34,0,0,0,.41.11.56.56,0,0,0,.18-.05.79.79,0,0,0,.25.17,1.58,1.58,0,0,0,.49,0,1.53,1.53,0,0,0,.49,0,.55.55,0,0,0,.16-.09c.1.09.2.22.33.25a1.66,1.66,0,0,0,.51-.07,1.59,1.59,0,0,0,.49-.09l0,0,.06,0c.16.07.29.27.48.28a1.78,1.78,0,0,0,.53-.14,1.69,1.69,0,0,0,.51-.15.49.49,0,0,0,.07-.07l.28,0a1.34,1.34,0,0,0,.42,0l.08,0a.85.85,0,0,0,.26.25,1.66,1.66,0,0,0,.5.1,1.62,1.62,0,0,0,.5.06,1.69,1.69,0,0,0,.44-.12l.08,0a1.75,1.75,0,0,0,.54,0,1.67,1.67,0,0,0,.52-.05.85.85,0,0,0,.29-.2,1.44,1.44,0,0,0,.43.08h.28a1.64,1.64,0,0,0,.38.26,1.82,1.82,0,0,0,.52.2h0a2,2,0,0,0,0,.39c0,.17.15.31.2.47l0,.08c0,.11,0,.23-.07.35a1.6,1.6,0,0,0-.12.49.65.65,0,0,0,.06.2.77.77,0,0,0-.1.19,1.74,1.74,0,0,0-.1.54,1.84,1.84,0,0,0,0,.56.45.45,0,0,0,.13.17.57.57,0,0,1,0,.1,1.49,1.49,0,0,0,0,.49c0,.17-.07.38,0,.54a.5.5,0,0,0,.12.13c0,.17-.17.33-.15.49a1.75,1.75,0,0,0,.15.51.52.52,0,0,0,.2.2c0,.1,0,.2,0,.29a1.47,1.47,0,0,0,0,.45A1.51,1.51,0,0,0,40,45c0,.17-.22.33-.21.51A1.78,1.78,0,0,0,40,46l0,.09a1.33,1.33,0,0,0-.12.25.88.88,0,0,0,0,.92l.05.14a2,2,0,0,0-.06.49,1.66,1.66,0,0,0-.07.52,1,1,0,0,0,.16.35A1.07,1.07,0,0,1,40,49a1.48,1.48,0,0,0,0,.49c0,.17-.08.38,0,.54a.49.49,0,0,0,.11.13.53.53,0,0,0-.07.15,1.39,1.39,0,0,0,0,.43c0,.09,0,.17,0,.26a1,1,0,0,0-.17.25,1.63,1.63,0,0,0,0,.49c0,.17-.13.35-.09.51a1.7,1.7,0,0,0,.21.47c.09.14.29.18.42.29l.09.07a1,1,0,0,0-.06.39,1.5,1.5,0,0,0,.19.42,1.16,1.16,0,0,0,.59.68l.24.12a.74.74,0,0,0,.14.38c.13.14.35.16.51.25a1,1,0,0,0,1,.14h.22c.08,0,.16.06.24.07s.34-.11.52-.13a1.52,1.52,0,0,0,.43-.12.81.81,0,0,0,.24.09.94.94,0,0,0,.38-.1,2.32,2.32,0,0,0,.33.15c.17.06.38-.05.56,0a1.57,1.57,0,0,0,.52-.06c.17-.05.41,0,.56-.09s0,0,.05-.06a.36.36,0,0,0,.19.05c.15,0,.27-.13.39-.18l.15-.06a1.16,1.16,0,0,0,.34.23,1.42,1.42,0,0,0,.44,0,2.2,2.2,0,0,0,.35,0l.09,0c.16.1.27.29.44.33a1.79,1.79,0,0,0,.55,0c.15,0,.26-.13.39-.22l.08.06a1.78,1.78,0,0,0,.54.06c.19,0,.38.15.55.12a1.86,1.86,0,0,0,.52-.21s0-.05.07-.08h0a1.42,1.42,0,0,0,.43-.06h.16s0,.07.08.09a1.85,1.85,0,0,0,.53.18c.18,0,.36-.11.54-.13l.28-.06h0a1.62,1.62,0,0,0,.49.1,1.57,1.57,0,0,0,.5,0,1.63,1.63,0,0,0,.45-.22c.16-.08.37-.07.48-.19a1.4,1.4,0,0,0,.2-.26l.3-.15a1.4,1.4,0,0,0,.39-.21.65.65,0,0,0,.15-.22,3.54,3.54,0,0,0,.38-.13,1.28,1.28,0,0,0,.83-.55,1.72,1.72,0,0,0,.27-.44c0-.16-.06-.35-.06-.52s0-.06,0-.09a1.33,1.33,0,0,1,.09-.16A2.94,2.94,0,0,0,59,50.79a.66.66,0,0,0-.1-.17.78.78,0,0,0,.06-.2,1.54,1.54,0,0,0-.09-.46s0,0,0-.05a1.27,1.27,0,0,0,.2-.37,1.54,1.54,0,0,0,0-.47c0-.16.08-.34,0-.49a1.45,1.45,0,0,0-.2-.34.37.37,0,0,0,.1-.16,1.51,1.51,0,0,0-.07-.46,2,2,0,0,0-.07-.36c0-.09.06-.18.1-.26a1.39,1.39,0,0,0,.18-.4.9.9,0,0,0-.06-.33,1.19,1.19,0,0,0,.17-.27,1.57,1.57,0,0,0,.13-.49,1,1,0,0,0-.21-1h0c.08-.14.22-.26.23-.42a1.73,1.73,0,0,0-.15-.52c0-.1-.05-.2-.08-.3a1.07,1.07,0,0,0,.09-.32,1.68,1.68,0,0,0-.11-.52l.14-.31a1.33,1.33,0,0,0,.19-1,1.79,1.79,0,0,0-.13-.52.72.72,0,0,0,.06-.23,1.75,1.75,0,0,0-.11-.53,1.7,1.7,0,0,0-.18-.51A.59.59,0,0,0,59,39.2c0-.13.13-.27.1-.41a1.07,1.07,0,0,0-.2-.35A1.41,1.41,0,0,0,59,38a.92.92,0,0,0-.06-.34,1.42,1.42,0,0,0,.19-.23,1.72,1.72,0,0,0,.22-.47c0-.17-.1-.34-.12-.51a1.49,1.49,0,0,0-.12-.48l-.06-.09h0a1.5,1.5,0,0,0,.07-.49c0-.17.11-.37,0-.54a.62.62,0,0,0-.16-.22,1.4,1.4,0,0,0,0-.46c0-.16.07-.36,0-.51a.66.66,0,0,0-.2-.22v-.05c0-.14.16-.26.16-.4s0-.05,0-.08l.05,0a1.79,1.79,0,0,0,.22-.5c.05-.17-.07-.36-.07-.53s0-.09,0-.13l0,.06a1.65,1.65,0,0,0,.43.29l.18.08a.73.73,0,0,0,0,.08,1.77,1.77,0,0,0,.42.34c.15.12.24.33.4.39a1.68,1.68,0,0,0,.45.09l.17.15c.11.11.18.27.33.34a1.55,1.55,0,0,0,.46.1,1.74,1.74,0,0,0,.44.06,1.37,1.37,0,0,0,.29.17,1.61,1.61,0,0,0,.47.14c.16,0,.3-.13.46-.18a1.4,1.4,0,0,0,.43-.17,1.43,1.43,0,0,0,.34-.3,1.54,1.54,0,0,0,.47-.16c.16-.09.4-.07.53-.2s.15-.35.23-.52l.11-.22a1.25,1.25,0,0,0,.39-.19,1.7,1.7,0,0,0,.36-.39,1.8,1.8,0,0,0,.26-.48.53.53,0,0,0,0-.28.66.66,0,0,0,.25-.13,1.53,1.53,0,0,0,.24-.4,1.49,1.49,0,0,0,.21-.42s0,0,0-.06a1.58,1.58,0,0,0,.23-.33,1.34,1.34,0,0,0,.2-.37,1.23,1.23,0,0,0,0-.4l.09-.08a1.62,1.62,0,0,0,.18-.47,1.6,1.6,0,0,0,.18-.47A1.65,1.65,0,0,0,68.33,27.28Z"/></g></svg>