<svg xmlns="http://www.w3.org/2000/svg" viewBox="0 0 41.17 41.17"><defs><style>.cls-1{fill:#fff;}</style></defs><title>logo_chatbox-symbol</title><g id="レイヤー_14" data-name="レイヤー 14"><path class="cls-1" d="M24.62,11.2l0-7.82H4.58a1.3,1.3,0,0,0-1.3,1.3V36.38a1.3,1.3,0,0,0,1.3,1.3H36.36a1.3,1.3,0,0,0,1.3-1.3l0-19.87H29.21A5.28,5.28,0,0,1,24.62,11.2Z"/><path class="cls-1" d="M36.93,0H4.23A4.24,4.24,0,0,0,0,4.23v32.7a4.24,4.24,0,0,0,4.23,4.23h32.7a4.24,4.24,0,0,0,4.24-4.23V4.23h0A4.24,4.24,0,0,0,36.93,0Zm2.3,36.93a2.3,2.3,0,0,1-2.3,2.29H4.23a2.29,2.29,0,0,1-2.29-2.29V4.23A2.29,2.29,0,0,1,4.23,1.94H26.15v8.84A4.23,4.23,0,0,0,30.38,15h8.85Zm0-23.86H30.38a2.29,2.29,0,0,1-2.29-2.29V1.94h8.84a2.3,2.3,0,0,1,2.3,2.29Z"/></g></svg>